<svg width="114" height="15" viewBox="0 0 114 15" fill="none" xmlns="http://www.w3.org/2000/svg">
<path d="M8.15918 10.7041C8.15918 10.1416 7.95996 9.70801 7.56152 9.40332C7.16895 9.09863 6.45703 8.79102 5.42578 8.48047C4.39453 8.16992 3.57422 7.82422 2.96484 7.44336C1.79883 6.71094 1.21582 5.75586 1.21582 4.57812C1.21582 3.54688 1.63477 2.69727 2.47266 2.0293C3.31641 1.36133 4.40918 1.02734 5.75098 1.02734C6.6416 1.02734 7.43555 1.19141 8.13281 1.51953C8.83008 1.84766 9.37793 2.31641 9.77637 2.92578C10.1748 3.5293 10.374 4.2002 10.374 4.93848H8.15918C8.15918 4.27051 7.94824 3.74902 7.52637 3.37402C7.11035 2.99316 6.5127 2.80273 5.7334 2.80273C5.00684 2.80273 4.44141 2.95801 4.03711 3.26855C3.63867 3.5791 3.43945 4.0127 3.43945 4.56934C3.43945 5.03809 3.65625 5.43066 4.08984 5.74707C4.52344 6.05762 5.23828 6.3623 6.23438 6.66113C7.23047 6.9541 8.03027 7.29102 8.63379 7.67188C9.2373 8.04688 9.67969 8.48047 9.96094 8.97266C10.2422 9.45898 10.3828 10.0303 10.3828 10.6865C10.3828 11.7529 9.97266 12.6025 9.15234 13.2354C8.33789 13.8623 7.23047 14.1758 5.83008 14.1758C4.9043 14.1758 4.05176 14.0059 3.27246 13.666C2.49902 13.3203 1.89551 12.8457 1.46191 12.2422C1.03418 11.6387 0.820312 10.9355 0.820312 10.1328H3.04395C3.04395 10.8594 3.28418 11.4219 3.76465 11.8203C4.24512 12.2188 4.93359 12.418 5.83008 12.418C6.60352 12.418 7.18359 12.2627 7.57031 11.9521C7.96289 11.6357 8.15918 11.2197 8.15918 10.7041ZM17.8096 14C17.7158 13.8184 17.6338 13.5225 17.5635 13.1123C16.8838 13.8213 16.0518 14.1758 15.0674 14.1758C14.1123 14.1758 13.333 13.9033 12.7295 13.3584C12.126 12.8135 11.8242 12.1396 11.8242 11.3369C11.8242 10.3232 12.1992 9.54688 12.9492 9.00781C13.7051 8.46289 14.7832 8.19043 16.1836 8.19043H17.4932V7.56641C17.4932 7.07422 17.3555 6.68164 17.0801 6.38867C16.8047 6.08984 16.3857 5.94043 15.8232 5.94043C15.3369 5.94043 14.9385 6.06348 14.6279 6.30957C14.3174 6.5498 14.1621 6.85742 14.1621 7.23242H12.0264C12.0264 6.71094 12.1992 6.22461 12.5449 5.77344C12.8906 5.31641 13.3594 4.95898 13.9512 4.70117C14.5488 4.44336 15.2139 4.31445 15.9463 4.31445C17.0596 4.31445 17.9473 4.5957 18.6094 5.1582C19.2715 5.71484 19.6113 6.5 19.6289 7.51367V11.8027C19.6289 12.6582 19.749 13.3408 19.9893 13.8506V14H17.8096ZM15.4629 12.4619C15.8848 12.4619 16.2803 12.3594 16.6494 12.1543C17.0244 11.9492 17.3057 11.6738 17.4932 11.3281V9.53516H16.3418C15.5508 9.53516 14.9561 9.67285 14.5576 9.94824C14.1592 10.2236 13.96 10.6133 13.96 11.1172C13.96 11.5273 14.0947 11.8555 14.3643 12.1016C14.6396 12.3418 15.0059 12.4619 15.4629 12.4619ZM25.0781 11.293L27.0908 4.49023H29.2969L26.001 14H24.1465L20.8242 4.49023H23.0391L25.0781 11.293ZM34.7021 14.1758C33.3486 14.1758 32.25 13.751 31.4062 12.9014C30.5684 12.0459 30.1494 10.9092 30.1494 9.49121V9.22754C30.1494 8.27832 30.3311 7.43164 30.6943 6.6875C31.0635 5.9375 31.5791 5.35449 32.2412 4.93848C32.9033 4.52246 33.6416 4.31445 34.4561 4.31445C35.751 4.31445 36.75 4.72754 37.4531 5.55371C38.1621 6.37988 38.5166 7.54883 38.5166 9.06055V9.92188H32.3027C32.3672 10.707 32.6279 11.3281 33.085 11.7852C33.5479 12.2422 34.1279 12.4707 34.8252 12.4707C35.8037 12.4707 36.6006 12.0752 37.2158 11.2842L38.3672 12.3828C37.9863 12.9512 37.4766 13.3936 36.8379 13.71C36.2051 14.0205 35.4932 14.1758 34.7021 14.1758ZM34.4473 6.02832C33.8613 6.02832 33.3867 6.2334 33.0234 6.64355C32.666 7.05371 32.4375 7.625 32.3379 8.35742H36.4072V8.19922C36.3604 7.48438 36.1699 6.94531 35.8359 6.58203C35.502 6.21289 35.0391 6.02832 34.4473 6.02832ZM39.7822 9.1748C39.7822 7.70996 40.1221 6.53516 40.8018 5.65039C41.4814 4.75977 42.3926 4.31445 43.5352 4.31445C44.543 4.31445 45.3574 4.66602 45.9785 5.36914V0.5H48.1143V14H46.1807L46.0752 13.0156C45.4365 13.7891 44.584 14.1758 43.5176 14.1758C42.4043 14.1758 41.502 13.7275 40.8105 12.8311C40.125 11.9346 39.7822 10.7158 39.7822 9.1748ZM41.918 9.35938C41.918 10.3262 42.1025 11.082 42.4717 11.627C42.8467 12.166 43.377 12.4355 44.0625 12.4355C44.9355 12.4355 45.5742 12.0459 45.9785 11.2666V7.20605C45.5859 6.44434 44.9531 6.06348 44.0801 6.06348C43.3887 6.06348 42.8555 6.33887 42.4805 6.88965C42.1055 7.43457 41.918 8.25781 41.918 9.35938ZM60.5068 14C60.4131 13.8184 60.3311 13.5225 60.2607 13.1123C59.5811 13.8213 58.749 14.1758 57.7646 14.1758C56.8096 14.1758 56.0303 13.9033 55.4268 13.3584C54.8232 12.8135 54.5215 12.1396 54.5215 11.3369C54.5215 10.3232 54.8965 9.54688 55.6465 9.00781C56.4023 8.46289 57.4805 8.19043 58.8809 8.19043H60.1904V7.56641C60.1904 7.07422 60.0527 6.68164 59.7773 6.38867C59.502 6.08984 59.083 5.94043 58.5205 5.94043C58.0342 5.94043 57.6357 6.06348 57.3252 6.30957C57.0146 6.5498 56.8594 6.85742 56.8594 7.23242H54.7236C54.7236 6.71094 54.8965 6.22461 55.2422 5.77344C55.5879 5.31641 56.0566 4.95898 56.6484 4.70117C57.2461 4.44336 57.9111 4.31445 58.6436 4.31445C59.7568 4.31445 60.6445 4.5957 61.3066 5.1582C61.9688 5.71484 62.3086 6.5 62.3262 7.51367V11.8027C62.3262 12.6582 62.4463 13.3408 62.6865 13.8506V14H60.5068ZM58.1602 12.4619C58.582 12.4619 58.9775 12.3594 59.3467 12.1543C59.7217 11.9492 60.0029 11.6738 60.1904 11.3281V9.53516H59.0391C58.248 9.53516 57.6533 9.67285 57.2549 9.94824C56.8564 10.2236 56.6572 10.6133 56.6572 11.1172C56.6572 11.5273 56.792 11.8555 57.0615 12.1016C57.3369 12.3418 57.7031 12.4619 58.1602 12.4619ZM69.542 6.44141C69.2607 6.39453 68.9707 6.37109 68.6719 6.37109C67.6934 6.37109 67.0342 6.74609 66.6943 7.49609V14H64.5586V4.49023H66.5977L66.6504 5.55371C67.166 4.72754 67.8809 4.31445 68.7949 4.31445C69.0996 4.31445 69.3516 4.35547 69.5508 4.4375L69.542 6.44141ZM74.0068 2.17871V4.49023H75.6855V6.07227H74.0068V11.3809C74.0068 11.7441 74.0771 12.0078 74.2178 12.1719C74.3643 12.3301 74.6221 12.4092 74.9912 12.4092C75.2373 12.4092 75.4863 12.3799 75.7383 12.3213V13.9736C75.252 14.1084 74.7832 14.1758 74.332 14.1758C72.6914 14.1758 71.8711 13.2705 71.8711 11.46V6.07227H70.3066V4.49023H71.8711V2.17871H74.0068ZM79.5967 14H77.4609V4.49023H79.5967V14ZM77.3291 2.02051C77.3291 1.69238 77.4316 1.41992 77.6367 1.20312C77.8477 0.986328 78.1465 0.87793 78.5332 0.87793C78.9199 0.87793 79.2188 0.986328 79.4297 1.20312C79.6406 1.41992 79.7461 1.69238 79.7461 2.02051C79.7461 2.34277 79.6406 2.6123 79.4297 2.8291C79.2188 3.04004 78.9199 3.14551 78.5332 3.14551C78.1465 3.14551 77.8477 3.04004 77.6367 2.8291C77.4316 2.6123 77.3291 2.34277 77.3291 2.02051ZM85.8369 12.4707C86.3701 12.4707 86.8125 12.3154 87.1641 12.0049C87.5156 11.6943 87.7031 11.3105 87.7266 10.8535H89.7393C89.7158 11.4453 89.5312 11.999 89.1855 12.5146C88.8398 13.0244 88.3711 13.4287 87.7793 13.7275C87.1875 14.0264 86.5488 14.1758 85.8633 14.1758C84.5332 14.1758 83.4785 13.7451 82.6992 12.8838C81.9199 12.0225 81.5303 10.833 81.5303 9.31543V9.0957C81.5303 7.64844 81.917 6.49121 82.6904 5.62402C83.4639 4.75098 84.5186 4.31445 85.8545 4.31445C86.9854 4.31445 87.9053 4.64551 88.6143 5.30762C89.3291 5.96387 89.7041 6.82812 89.7393 7.90039H87.7266C87.7031 7.35547 87.5156 6.90723 87.1641 6.55566C86.8184 6.2041 86.376 6.02832 85.8369 6.02832C85.1455 6.02832 84.6123 6.28027 84.2373 6.78418C83.8623 7.28223 83.6719 8.04102 83.666 9.06055V9.40332C83.666 10.4346 83.8506 11.2051 84.2197 11.7148C84.5947 12.2188 85.1338 12.4707 85.8369 12.4707ZM93.624 14H91.4883V0.5H93.624V14ZM100.146 14.1758C98.792 14.1758 97.6934 13.751 96.8496 12.9014C96.0117 12.0459 95.5928 10.9092 95.5928 9.49121V9.22754C95.5928 8.27832 95.7744 7.43164 96.1377 6.6875C96.5068 5.9375 97.0225 5.35449 97.6846 4.93848C98.3467 4.52246 99.085 4.31445 99.8994 4.31445C101.194 4.31445 102.193 4.72754 102.896 5.55371C103.605 6.37988 103.96 7.54883 103.96 9.06055V9.92188H97.7461C97.8105 10.707 98.0713 11.3281 98.5283 11.7852C98.9912 12.2422 99.5713 12.4707 100.269 12.4707C101.247 12.4707 102.044 12.0752 102.659 11.2842L103.811 12.3828C103.43 12.9512 102.92 13.3936 102.281 13.71C101.648 14.0205 100.937 14.1758 100.146 14.1758ZM99.8906 6.02832C99.3047 6.02832 98.8301 6.2334 98.4668 6.64355C98.1094 7.05371 97.8809 7.625 97.7812 8.35742H101.851V8.19922C101.804 7.48438 101.613 6.94531 101.279 6.58203C100.945 6.21289 100.482 6.02832 99.8906 6.02832ZM110.956 11.416C110.956 11.0352 110.798 10.7451 110.481 10.5459C110.171 10.3467 109.652 10.1709 108.926 10.0186C108.199 9.86621 107.593 9.67285 107.106 9.43848C106.04 8.92285 105.507 8.17578 105.507 7.19727C105.507 6.37695 105.853 5.69141 106.544 5.14062C107.235 4.58984 108.114 4.31445 109.181 4.31445C110.317 4.31445 111.234 4.5957 111.932 5.1582C112.635 5.7207 112.986 6.4502 112.986 7.34668H110.851C110.851 6.93652 110.698 6.59668 110.394 6.32715C110.089 6.05176 109.685 5.91406 109.181 5.91406C108.712 5.91406 108.328 6.02246 108.029 6.23926C107.736 6.45605 107.59 6.74609 107.59 7.10938C107.59 7.4375 107.728 7.69238 108.003 7.87402C108.278 8.05566 108.835 8.24023 109.673 8.42773C110.511 8.60938 111.167 8.8291 111.642 9.08691C112.122 9.33887 112.477 9.64355 112.705 10.001C112.939 10.3584 113.057 10.792 113.057 11.3018C113.057 12.1572 112.702 12.8516 111.993 13.3848C111.284 13.9121 110.355 14.1758 109.207 14.1758C108.428 14.1758 107.733 14.0352 107.124 13.7539C106.515 13.4727 106.04 13.0859 105.7 12.5938C105.36 12.1016 105.19 11.5713 105.19 11.0029H107.265C107.294 11.5068 107.484 11.8965 107.836 12.1719C108.188 12.4414 108.653 12.5762 109.233 12.5762C109.796 12.5762 110.224 12.4707 110.517 12.2598C110.81 12.043 110.956 11.7617 110.956 11.416Z" fill="#B6BCBF"/>
</svg>
